<svg xmlns="http://www.w3.org/2000/svg" width="262" height="70" viewBox="0 0 262 70" fill="none"><path d="M32.2253 1.1493C33.7577 -0.383099 36.2422 -0.383099 37.7746 1.1493L41.6591 5.0338C43.1915 6.5662 43.1915 9.0507 41.6591 10.5831L37.7746 14.4676C36.2422 16 33.7577 16 32.2253 14.4676L28.3408 10.5831C26.8084 9.0507 26.8084 6.5662 28.3408 5.0338L32.2253 1.1493Z" fill="url(#paint0_linear_224_888)"></path><path d="M59.4169 28.3408C60.9493 26.8084 63.4338 26.8084 64.9662 28.3408L68.8507 32.2253C70.3831 33.7577 70.3831 36.2423 68.8507 37.7746L64.9662 41.6592C63.4338 43.1915 60.9493 43.1915 59.4169 41.6592L55.5324 37.7746C54 36.2423 54 33.7577 55.5324 32.2253L59.4169 28.3408Z" fill="url(#paint1_linear_224_888)"></path><path d="M18.6295 14.7451C20.1619 13.2127 22.6464 13.2127 24.1788 14.7451L28.0633 18.6296C29.5957 20.162 29.5957 22.6465 28.0633 24.1789L24.1788 28.0634C22.6464 29.5958 20.1619 29.5958 18.6295 28.0634L14.7449 24.1789C13.2125 22.6465 13.2125 20.162 14.7449 18.6296L18.6295 14.7451Z" fill="url(#paint2_linear_224_888)"></path><path d="M18.6295 41.9366C20.1619 40.4042 22.6464 40.4042 24.1788 41.9366L28.0633 45.8211C29.5957 47.3535 29.5957 49.838 28.0633 51.3704L24.1788 55.2549C22.6464 56.7873 20.1619 56.7873 18.6295 55.2549L14.7449 51.3704C13.2125 49.838 13.2125 47.3535 14.7449 45.8211L18.6295 41.9366Z" fill="url(#paint3_linear_224_888)"></path><path d="M32.2253 55.5324C33.7577 54 36.2422 54 37.7746 55.5324L41.6591 59.4169C43.1915 60.9493 43.1915 63.4338 41.6591 64.9662L37.7746 68.8507C36.2422 70.3831 33.7577 70.3831 32.2253 68.8507L28.3408 64.9662C26.8084 63.4338 26.8084 60.9493 28.3408 59.4169L32.2253 55.5324Z" fill="url(#paint4_linear_224_888)"></path><path fill-rule="evenodd" clip-rule="evenodd" d="M10.5831 28.3408L11.3613 29.1191C13.6486 32.2107 17.3214 34.2152 21.4624 34.2152C25.7797 34.2152 29.5881 32.0363 31.848 28.7182L32.2254 28.3408C33.7578 26.8085 36.2423 26.8085 37.7747 28.3408L41.6592 32.2253C43.1916 33.7577 43.1916 36.2423 41.6592 37.7746L37.7747 41.6592C36.2423 43.1915 33.7578 43.1915 32.2254 41.6592L31.848 41.2818C29.5881 37.9637 25.7797 35.7848 21.4624 35.7848C17.3214 35.7848 13.6486 37.7893 11.3613 40.8809L10.5831 41.6592C9.05072 43.1915 6.56621 43.1915 5.03381 41.6592L1.1493 37.7746C-0.3831 36.2423 -0.383099 33.7577 1.1493 32.2253L5.03381 28.3408C6.56621 26.8085 9.05072 26.8085 10.5831 28.3408Z" fill="url(#paint5_linear_224_888)"></path><path fill-rule="evenodd" clip-rule="evenodd" d="M45.8212 14.7451C47.3536 13.2127 49.8381 13.2127 51.3705 14.7451L55.2551 18.6296C56.7874 20.162 56.7874 22.6465 55.2551 24.1789L54.0312 25.4027V25.5252C51.3865 27.8273 49.7148 31.2184 49.7148 35C49.7148 38.7816 51.3865 42.1727 54.0312 44.4748V44.5972L55.2551 45.8211C56.7874 47.3535 56.7874 49.838 55.2551 51.3704L51.3705 55.2549C49.8381 56.7873 47.3536 56.7873 45.8212 55.2549L41.9367 51.3704C40.4043 49.838 40.4043 47.3535 41.9367 45.8211L42.8479 44.9099V44.8026C45.7185 42.5014 47.5566 38.9653 47.5566 35C47.5566 31.0347 45.7185 27.4986 42.8479 25.1974V25.0901L41.9367 24.1789C40.4043 22.6465 40.4043 20.162 41.9367 18.6296L45.8212 14.7451Z" fill="url(#paint6_linear_224_888)"></path><path d="M111.464 9.35004H115.58V30H113.312V11.254L113.382 11.282L108.118 30H104.702L99.41 11.268L99.48 11.24V30H97.212V9.35004H101.328L106.396 28.082H106.368L111.464 9.35004Z" fill="white"></path><path d="M119.877 30V9.35004H122.229V30H119.877Z" fill="white"></path><path d="M138.607 11.45H132.643L133.189 10.092V30H130.809V10.092L131.481 11.45H125.405V9.35004H138.607V11.45Z" fill="white"></path><path d="M138.41 22.832V21.32H148.154V22.832H138.41Z" fill="white"></path><path d="M154.083 30H151.689V9.35004H157.485C159.081 9.35004 160.406 9.64871 161.461 10.246C162.516 10.834 163.304 11.6274 163.827 12.626C164.35 13.6247 164.611 14.7354 164.611 15.958C164.611 17.1807 164.34 18.31 163.799 19.346C163.267 20.382 162.469 21.2174 161.405 21.852C160.35 22.4774 159.044 22.79 157.485 22.79H154.083V30ZM154.083 21.908L153.005 20.69H157.191C158.311 20.69 159.24 20.494 159.977 20.102C160.724 19.7007 161.279 19.1454 161.643 18.436C162.016 17.7267 162.203 16.9007 162.203 15.958C162.203 15.006 162.026 14.194 161.671 13.522C161.316 12.85 160.77 12.3367 160.033 11.982C159.296 11.6274 158.348 11.45 157.191 11.45H153.005L154.083 10.092V21.908Z" fill="white"></path><path d="M168.102 30V15.132H170.454V30H168.102ZM169.292 11.716C168.854 11.716 168.471 11.5947 168.144 11.352C167.827 11.1 167.668 10.7594 167.668 10.33C167.668 9.91004 167.827 9.57871 168.144 9.33604C168.471 9.08404 168.854 8.95804 169.292 8.95804C169.731 8.95804 170.109 9.08404 170.426 9.33604C170.744 9.57871 170.902 9.91004 170.902 10.33C170.902 10.7594 170.744 11.1 170.426 11.352C170.109 11.5947 169.731 11.716 169.292 11.716Z" fill="white"></path><path d="M177.442 8.11804V30H175.09V8.11804H177.442Z" fill="white"></path><path d="M184.36 8.11804V30H182.008V8.11804H184.36Z" fill="white"></path><path d="M193.91 30.28C192.781 30.28 191.792 30.1027 190.942 29.748C190.102 29.3934 189.449 28.8847 188.982 28.222C188.516 27.55 188.282 26.7474 188.282 25.814C188.282 24.8434 188.534 24.036 189.038 23.392C189.542 22.7387 190.252 22.23 191.166 21.866C192.081 21.502 193.145 21.2594 194.358 21.138C196.188 20.9514 197.49 20.7694 198.264 20.592C199.039 20.4054 199.426 20.1067 199.426 19.696C199.426 19.6867 199.426 19.682 199.426 19.682C199.426 19.6727 199.426 19.6634 199.426 19.654C199.426 18.7954 199.076 18.156 198.376 17.736C197.676 17.3067 196.664 17.092 195.338 17.092C193.957 17.092 192.884 17.3347 192.118 17.82C191.353 18.296 190.97 19.0707 190.97 20.144H188.618C188.618 19.0334 188.903 18.0907 189.472 17.316C190.042 16.532 190.83 15.9347 191.838 15.524C192.856 15.1134 194.027 14.908 195.352 14.908C196.566 14.908 197.658 15.0947 198.628 15.468C199.608 15.832 200.383 16.378 200.952 17.106C201.531 17.8247 201.82 18.716 201.82 19.78C201.82 19.976 201.82 20.172 201.82 20.368C201.82 20.5547 201.82 20.746 201.82 20.942V27.2C201.82 27.5267 201.834 27.844 201.862 28.152C201.89 28.46 201.937 28.7307 202.002 28.964C202.086 29.244 202.18 29.4727 202.282 29.65C202.385 29.818 202.469 29.9347 202.534 30H200.14C200.094 29.9534 200.024 29.846 199.93 29.678C199.837 29.5007 199.748 29.2954 199.664 29.062C199.599 28.8754 199.548 28.642 199.51 28.362C199.473 28.0727 199.454 27.774 199.454 27.466L199.846 27.732C199.557 28.236 199.132 28.6794 198.572 29.062C198.022 29.4447 197.354 29.7434 196.57 29.958C195.786 30.1727 194.9 30.28 193.91 30.28ZM194.288 28.138C195.25 28.138 196.118 27.9934 196.892 27.704C197.667 27.4054 198.283 26.9667 198.74 26.388C199.198 25.8094 199.426 25.0907 199.426 24.232V21.278L199.958 22.174C199.361 22.4074 198.614 22.5987 197.718 22.748C196.832 22.888 195.903 23.0047 194.932 23.098C193.523 23.2287 192.459 23.476 191.74 23.84C191.031 24.204 190.676 24.8154 190.676 25.674C190.676 26.486 190.97 27.102 191.558 27.522C192.146 27.9327 193.056 28.138 194.288 28.138Z" fill="white"></path><path d="M205.779 30V15.132H208.159V19.696L207.375 19.416C207.431 18.8654 207.571 18.324 207.795 17.792C208.019 17.2507 208.327 16.7654 208.719 16.336C209.12 15.8974 209.619 15.552 210.217 15.3C210.814 15.0387 211.514 14.908 212.317 14.908C212.914 14.908 213.399 14.9594 213.773 15.062C214.155 15.1554 214.393 15.23 214.487 15.286L213.871 17.624C213.777 17.5587 213.586 17.4747 213.297 17.372C213.017 17.2694 212.615 17.218 212.093 17.218C211.318 17.218 210.674 17.358 210.161 17.638C209.657 17.918 209.255 18.2914 208.957 18.758C208.667 19.2154 208.462 19.7147 208.341 20.256C208.219 20.7974 208.159 21.334 208.159 21.866V30H205.779Z" fill="white"></path><path d="M96.092 62L101.776 41.294H105.5L111.142 62H108.678L103.624 42.848H103.652L98.556 62H96.092ZM99.032 56.526V54.426H108.244V56.526H99.032Z" fill="white"></path><path d="M114.08 62V41.35H116.432V62H114.08Z" fill="white"></path><path d="M142.652 54.818C142.652 55.6487 142.498 56.5027 142.19 57.38C141.882 58.248 141.415 59.0554 140.79 59.802C140.174 60.5394 139.394 61.1367 138.452 61.594C137.509 62.0514 136.403 62.28 135.134 62.28C133.388 62.28 131.904 61.8274 130.682 60.922C129.459 60.0074 128.526 58.752 127.882 57.156C127.247 55.56 126.93 53.7354 126.93 51.682C126.93 49.6194 127.247 47.7947 127.882 46.208C128.526 44.612 129.459 43.3614 130.682 42.456C131.904 41.5507 133.388 41.098 135.134 41.098C136.59 41.098 137.831 41.3967 138.858 41.994C139.884 42.5914 140.701 43.352 141.308 44.276C141.914 45.2 142.311 46.152 142.498 47.132C142.6 47.6267 142.652 48.0934 142.652 48.532H140.258C140.258 48.28 140.234 47.9907 140.188 47.664C140.076 46.88 139.805 46.1567 139.376 45.494C138.956 44.822 138.391 44.2854 137.682 43.884C136.972 43.4734 136.123 43.268 135.134 43.268C133.976 43.268 132.964 43.5854 132.096 44.22C131.237 44.8547 130.565 45.7974 130.08 47.048C129.604 48.2987 129.366 49.8434 129.366 51.682C129.366 53.5207 129.604 55.07 130.08 56.33C130.565 57.5807 131.237 58.528 132.096 59.172C132.964 59.8067 133.976 60.124 135.134 60.124C135.964 60.124 136.697 59.9747 137.332 59.676C137.966 59.368 138.498 58.962 138.928 58.458C139.366 57.9447 139.698 57.3754 139.922 56.75C140.146 56.1154 140.258 55.4714 140.258 54.818H142.652Z" fill="white"></path><path d="M153.239 62.266C151.745 62.266 150.425 61.9347 149.277 61.272C148.138 60.6 147.242 59.6854 146.589 58.528C145.945 57.3614 145.623 56.036 145.623 54.552C145.623 53.068 145.945 51.752 146.589 50.604C147.242 49.456 148.138 48.5554 149.277 47.902C150.425 47.2487 151.745 46.922 153.239 46.922C154.732 46.922 156.048 47.2487 157.187 47.902C158.335 48.5554 159.231 49.456 159.875 50.604C160.528 51.752 160.855 53.068 160.855 54.552C160.855 56.036 160.528 57.3614 159.875 58.528C159.231 59.6854 158.335 60.6 157.187 61.272C156.048 61.9347 154.732 62.266 153.239 62.266ZM153.239 60.082C154.265 60.082 155.171 59.8534 155.955 59.396C156.739 58.9387 157.35 58.2947 157.789 57.464C158.237 56.6334 158.461 55.6627 158.461 54.552C158.461 53.4414 158.237 52.48 157.789 51.668C157.35 50.8467 156.739 50.2167 155.955 49.778C155.171 49.33 154.265 49.106 153.239 49.106C152.221 49.106 151.316 49.33 150.523 49.778C149.739 50.2167 149.123 50.8467 148.675 51.668C148.236 52.48 148.017 53.4414 148.017 54.552C148.017 55.6627 148.236 56.6334 148.675 57.464C149.123 58.2947 149.739 58.9387 150.523 59.396C151.316 59.8534 152.221 60.082 153.239 60.082Z" fill="white"></path><path d="M167.134 40.118V62H164.782V40.118H167.134Z" fill="white"></path><path d="M174.052 40.118V62H171.7V40.118H174.052Z" fill="white"></path><path d="M179.178 55.518V53.39H190.672L190.252 54.09C190.252 54.034 190.252 53.9827 190.252 53.936C190.252 53.88 190.252 53.8287 190.252 53.782C190.252 52.9234 190.07 52.1394 189.706 51.43C189.351 50.7114 188.819 50.1374 188.11 49.708C187.4 49.2787 186.523 49.064 185.478 49.064C184.423 49.064 183.494 49.288 182.692 49.736C181.889 50.184 181.264 50.8187 180.816 51.64C180.368 52.452 180.144 53.4227 180.144 54.552C180.144 55.7 180.358 56.6894 180.788 57.52C181.226 58.3507 181.847 58.99 182.65 59.438C183.452 59.886 184.404 60.11 185.506 60.11C186.29 60.11 186.971 60.0307 187.55 59.872C188.128 59.704 188.604 59.4847 188.978 59.214C189.36 58.934 189.65 58.6307 189.846 58.304C190.042 57.9774 190.158 57.6507 190.196 57.324H192.576C192.529 57.9214 192.342 58.514 192.016 59.102C191.689 59.69 191.227 60.2267 190.63 60.712C190.032 61.188 189.3 61.5707 188.432 61.86C187.564 62.1494 186.565 62.294 185.436 62.294C183.942 62.294 182.626 61.9674 181.488 61.314C180.349 60.6607 179.453 59.7554 178.8 58.598C178.156 57.4407 177.834 56.1107 177.834 54.608C177.834 53.0867 178.16 51.752 178.814 50.604C179.467 49.4467 180.368 48.5414 181.516 47.888C182.664 47.2347 183.975 46.908 185.45 46.908C186.952 46.908 188.254 47.2347 189.356 47.888C190.457 48.5414 191.306 49.4374 191.904 50.576C192.501 51.7054 192.8 52.9934 192.8 54.44C192.8 54.5894 192.795 54.7854 192.786 55.028C192.776 55.2707 192.762 55.434 192.744 55.518H179.178Z" fill="white"></path><path d="M203.565 62.28C202.147 62.28 200.859 61.972 199.701 61.356C198.544 60.7307 197.625 59.8394 196.943 58.682C196.271 57.5247 195.935 56.148 195.935 54.552C195.935 52.956 196.271 51.5887 196.943 50.45C197.625 49.302 198.544 48.4247 199.701 47.818C200.859 47.2114 202.147 46.908 203.565 46.908C204.648 46.908 205.614 47.076 206.463 47.412C207.313 47.7387 208.031 48.1774 208.619 48.728C209.207 49.2787 209.655 49.8854 209.963 50.548C210.281 51.2014 210.439 51.8547 210.439 52.508C210.439 52.5174 210.439 52.5314 210.439 52.55C210.439 52.5687 210.439 52.5874 210.439 52.606H208.073C208.073 52.5594 208.069 52.508 208.059 52.452C208.05 52.3867 208.041 52.3214 208.031 52.256C207.957 51.6307 207.719 51.0847 207.317 50.618C206.916 50.142 206.393 49.7687 205.749 49.498C205.105 49.2274 204.373 49.092 203.551 49.092C202.627 49.092 201.769 49.2927 200.975 49.694C200.191 50.086 199.557 50.688 199.071 51.5C198.595 52.3027 198.357 53.32 198.357 54.552C198.357 55.7747 198.595 56.7967 199.071 57.618C199.547 58.4394 200.177 59.06 200.961 59.48C201.755 59.8907 202.618 60.096 203.551 60.096C204.559 60.096 205.39 59.9374 206.043 59.62C206.697 59.3027 207.187 58.8827 207.513 58.36C207.849 57.828 208.036 57.2587 208.073 56.652H210.439C210.439 57.324 210.29 57.996 209.991 58.668C209.693 59.3307 209.254 59.9374 208.675 60.488C208.097 61.0294 207.378 61.4634 206.519 61.79C205.67 62.1167 204.685 62.28 203.565 62.28Z" fill="white"></path><path d="M219.725 62.224C219.268 62.224 218.82 62.1727 218.381 62.07C217.942 61.9674 217.546 61.7854 217.191 61.524C216.846 61.2534 216.57 60.8754 216.365 60.39C216.16 59.8954 216.057 59.2607 216.057 58.486C216.057 58.29 216.057 58.0894 216.057 57.884C216.057 57.6694 216.057 57.4454 216.057 57.212V49.232H212.431V47.132H214.755C215.072 47.132 215.32 47.1227 215.497 47.104C215.674 47.076 215.8 47.0154 215.875 46.922C215.959 46.8194 216.011 46.6654 216.029 46.46C216.048 46.2454 216.057 45.9514 216.057 45.578V42.204H218.451V47.132H223.099V49.232H218.451V56.442C218.451 56.6474 218.451 56.848 218.451 57.044C218.451 57.24 218.451 57.422 218.451 57.59C218.451 58.3834 218.544 59.004 218.731 59.452C218.927 59.9 219.361 60.124 220.033 60.124C220.304 60.124 220.56 60.1007 220.803 60.054C221.046 60.0074 221.228 59.9607 221.349 59.914V61.986C221.191 62.042 220.966 62.0934 220.677 62.14C220.397 62.196 220.08 62.224 219.725 62.224Z" fill="white"></path><path d="M226.29 62V47.132H228.642V62H226.29ZM227.48 43.716C227.041 43.716 226.659 43.5947 226.332 43.352C226.015 43.1 225.856 42.7594 225.856 42.33C225.856 41.91 226.015 41.5787 226.332 41.336C226.659 41.084 227.041 40.958 227.48 40.958C227.919 40.958 228.297 41.084 228.614 41.336C228.931 41.5787 229.09 41.91 229.09 42.33C229.09 42.7594 228.931 43.1 228.614 43.352C228.297 43.5947 227.919 43.716 227.48 43.716Z" fill="white"></path><path d="M244.954 47.132L239.97 62H236.848L231.752 47.132H234.216L238.598 60.74H238.22L242.49 47.132H244.954Z" fill="white"></path><path d="M247.865 55.518V53.39H259.359L258.939 54.09C258.939 54.034 258.939 53.9827 258.939 53.936C258.939 53.88 258.939 53.8287 258.939 53.782C258.939 52.9234 258.757 52.1394 258.393 51.43C258.039 50.7114 257.506 50.1374 256.797 49.708C256.088 49.2787 255.211 49.064 254.165 49.064C253.111 49.064 252.182 49.288 251.379 49.736C250.576 50.184 249.951 50.8187 249.503 51.64C249.055 52.452 248.831 53.4227 248.831 54.552C248.831 55.7 249.046 56.6894 249.475 57.52C249.914 58.3507 250.535 58.99 251.337 59.438C252.14 59.886 253.092 60.11 254.193 60.11C254.977 60.11 255.659 60.0307 256.237 59.872C256.816 59.704 257.292 59.4847 257.665 59.214C258.048 58.934 258.337 58.6307 258.533 58.304C258.729 57.9774 258.846 57.6507 258.883 57.324H261.263C261.217 57.9214 261.03 58.514 260.703 59.102C260.377 59.69 259.915 60.2267 259.317 60.712C258.72 61.188 257.987 61.5707 257.119 61.86C256.251 62.1494 255.253 62.294 254.123 62.294C252.63 62.294 251.314 61.9674 250.175 61.314C249.037 60.6607 248.141 59.7554 247.487 58.598C246.843 57.4407 246.521 56.1107 246.521 54.608C246.521 53.0867 246.848 51.752 247.501 50.604C248.155 49.4467 249.055 48.5414 250.203 47.888C251.351 47.2347 252.663 46.908 254.137 46.908C255.64 46.908 256.942 47.2347 258.043 47.888C259.145 48.5414 259.994 49.4374 260.591 50.576C261.189 51.7054 261.487 52.9934 261.487 54.44C261.487 54.5894 261.483 54.7854 261.473 55.028C261.464 55.2707 261.45 55.434 261.431 55.518H247.865Z" fill="white"></path><defs><linearGradient id="paint0_linear_224_888" x1="22.4" y1="10.6329" x2="44.5986" y2="66.6498" gradientUnits="userSpaceOnUse"><stop stop-color="#AABDFB"></stop><stop offset="0.585927" stop-color="#F6C2DD" stop-opacity="0.7"></stop><stop offset="1" stop-color="white" stop-opacity="0"></stop></linearGradient><linearGradient id="paint1_linear_224_888" x1="22.4" y1="10.6329" x2="44.5986" y2="66.6498" gradientUnits="userSpaceOnUse"><stop stop-color="#AABDFB"></stop><stop offset="0.585927" stop-color="#F6C2DD" stop-opacity="0.7"></stop><stop offset="1" stop-color="white" stop-opacity="0"></stop></linearGradient><linearGradient id="paint2_linear_224_888" x1="22.4" y1="10.6329" x2="44.5986" y2="66.6498" gradientUnits="userSpaceOnUse"><stop stop-color="#AABDFB"></stop><stop offset="0.585927" stop-color="#F6C2DD" stop-opacity="0.7"></stop><stop offset="1" stop-color="white" stop-opacity="0"></stop></linearGradient><linearGradient id="paint3_linear_224_888" x1="22.4" y1="10.6329" x2="44.5986" y2="66.6498" gradientUnits="userSpaceOnUse"><stop stop-color="#AABDFB"></stop><stop offset="0.585927" stop-color="#F6C2DD" stop-opacity="0.7"></stop><stop offset="1" stop-color="white" stop-opacity="0"></stop></linearGradient><linearGradient id="paint4_linear_224_888" x1="22.4" y1="10.6329" x2="44.5986" y2="66.6498" gradientUnits="userSpaceOnUse"><stop stop-color="#AABDFB"></stop><stop offset="0.585927" stop-color="#F6C2DD" stop-opacity="0.7"></stop><stop offset="1" stop-color="white" stop-opacity="0"></stop></linearGradient><linearGradient id="paint5_linear_224_888" x1="22.4" y1="10.6329" x2="44.5986" y2="66.6498" gradientUnits="userSpaceOnUse"><stop stop-color="#AABDFB"></stop><stop offset="0.585927" stop-color="#F6C2DD" stop-opacity="0.7"></stop><stop offset="1" stop-color="white" stop-opacity="0"></stop></linearGradient><linearGradient id="paint6_linear_224_888" x1="22.4" y1="10.6329" x2="44.5986" y2="66.6498" gradientUnits="userSpaceOnUse"><stop stop-color="#AABDFB"></stop><stop offset="0.585927" stop-color="#F6C2DD" stop-opacity="0.7"></stop><stop offset="1" stop-color="white" stop-opacity="0"></stop></linearGradient></defs></svg>