<?xml version="1.0" encoding="utf-8"?>
<!-- Generator: Adobe Illustrator 27.5.0, SVG Export Plug-In . SVG Version: 6.00 Build 0)  -->
<svg version="1.1" id="Layer_1" xmlns="http://www.w3.org/2000/svg" xmlns:xlink="http://www.w3.org/1999/xlink" x="0px" y="0px"
	 viewBox="0 0 1127.3 381.1" style="enable-background:new 0 0 1127.3 381.1;" xml:space="preserve">
<style type="text/css">
	.st0{fill:url(#SVGID_1_);}
	.st1{fill:url(#SVGID_00000036953219070237481220000014403191681500102800_);}
	.st2{fill:url(#SVGID_00000138554594128222851370000012255621188038625933_);}
	.st3{fill:url(#SVGID_00000127010737315223441500000003999913164601948829_);}
	.st4{fill:url(#SVGID_00000067944280480298391010000007107482164025664665_);}
	.st5{fill:url(#SVGID_00000070078397088628295090000003464822239512278175_);}
</style>
<g>
	<g>
		<linearGradient id="SVGID_1_" gradientUnits="userSpaceOnUse" x1="0" y1="190.55" x2="1127.313" y2="190.55">
			<stop  offset="0.2" style="stop-color:#7CCAB0"/>
			<stop  offset="0.3043" style="stop-color:#71C8B6"/>
			<stop  offset="0.4773" style="stop-color:#4CC3C7"/>
			<stop  offset="0.5" style="stop-color:#44C2C9"/>
			<stop  offset="0.85" style="stop-color:#486480"/>
		</linearGradient>
		<path class="st0" d="M0,238.4c0-79.8,55.6-130.3,125.1-130.3c18.5,0,33.5,14.9,33.5,33.5s-14.9,33.5-33.5,33.5
			c-29.4,0-53,20.6-53,63.3V345c0,20.1-16,36.1-36.1,36.1S0,365.1,0,345V238.4z"/>
		
			<linearGradient id="SVGID_00000060000011593475643110000006618079782317970879_" gradientUnits="userSpaceOnUse" x1="0" y1="190.55" x2="1127.313" y2="190.55">
			<stop  offset="0.2" style="stop-color:#7CCAB0"/>
			<stop  offset="0.3043" style="stop-color:#71C8B6"/>
			<stop  offset="0.4773" style="stop-color:#4CC3C7"/>
			<stop  offset="0.5" style="stop-color:#44C2C9"/>
			<stop  offset="0.85" style="stop-color:#486480"/>
		</linearGradient>
		<path style="fill:url(#SVGID_00000060000011593475643110000006618079782317970879_);" d="M161.7,244.6
			c0-76.2,57.7-136.5,137.5-136.5c42.2,0,74.2,17.5,88.6,30.9c8.2,7.2,12.9,17.5,12.9,27.8c0,8.8-2.6,16.5-9.8,25.2l-66.4,79.3
			c-7.2,8.2-14.9,11.8-24.7,11.8c-19.6,0-34.5-13.9-34.5-33c0-7.7,2.1-15.5,7.7-21.6l44.3-51c-3.6-1.5-12.4-2.6-18-2.6
			c-36.6,0-64.9,30.9-64.9,69.5c0,38.6,27.8,69.5,64.9,69.5c19.1,0,31.9-7.7,40.7-14.9c10.3-8.8,17.5-16.5,31.4-16.5
			c20.1,0,35.5,14.4,35.5,34.5c0,7.2-3.6,16-10.3,23.7c-17.5,21.1-53,40.2-97.3,40.2C219.9,381.1,161.7,321.4,161.7,244.6z"/>
		
			<linearGradient id="SVGID_00000036210014766866126090000017816026332298695308_" gradientUnits="userSpaceOnUse" x1="0" y1="190.55" x2="1127.313" y2="190.55">
			<stop  offset="0.2" style="stop-color:#7CCAB0"/>
			<stop  offset="0.3043" style="stop-color:#71C8B6"/>
			<stop  offset="0.4773" style="stop-color:#4CC3C7"/>
			<stop  offset="0.5" style="stop-color:#44C2C9"/>
			<stop  offset="0.85" style="stop-color:#486480"/>
		</linearGradient>
		<path style="fill:url(#SVGID_00000036210014766866126090000017816026332298695308_);" d="M440.8,46.4c0-20.1,16-36,36-36
			s36.1,16,36.1,36V345c0,20.1-16,36.1-36.1,36.1s-36-16-36-36.1V46.4z"/>
		
			<linearGradient id="SVGID_00000133519351554716051210000010333951993733979024_" gradientUnits="userSpaceOnUse" x1="0" y1="190.55" x2="1127.313" y2="190.55">
			<stop  offset="0.2" style="stop-color:#7CCAB0"/>
			<stop  offset="0.3043" style="stop-color:#71C8B6"/>
			<stop  offset="0.4773" style="stop-color:#4CC3C7"/>
			<stop  offset="0.5" style="stop-color:#44C2C9"/>
			<stop  offset="0.85" style="stop-color:#486480"/>
		</linearGradient>
		<path style="fill:url(#SVGID_00000133519351554716051210000010333951993733979024_);" d="M549.5,244.6
			c0-76.2,54.6-136.5,127.2-136.5c28.3,0,54.6,9.8,75.7,25.8c4.6-14.9,18.5-25.8,35-25.8c20.1,0,36,16,36,36.1V345
			c0,20.1-16,36.1-36,36.1c-16.5,0-30.4-10.8-35-25.8c-21.1,16.5-47.4,25.8-75.7,25.8C604.1,381.1,549.5,320.8,549.5,244.6z
			 M751.4,244.6c0-39.7-28.3-69.5-64.4-69.5c-36.6,0-64.9,29.9-64.9,69.5c0,40.2,28.3,69.5,64.9,69.5
			C723,314.1,751.4,284.8,751.4,244.6z"/>
		
			<linearGradient id="SVGID_00000115489856974146584430000003897041079726537892_" gradientUnits="userSpaceOnUse" x1="0" y1="190.55" x2="1127.313" y2="190.55">
			<stop  offset="0.2" style="stop-color:#7CCAB0"/>
			<stop  offset="0.3043" style="stop-color:#71C8B6"/>
			<stop  offset="0.4773" style="stop-color:#4CC3C7"/>
			<stop  offset="0.5" style="stop-color:#44C2C9"/>
			<stop  offset="0.85" style="stop-color:#486480"/>
		</linearGradient>
		<path style="fill:url(#SVGID_00000115489856974146584430000003897041079726537892_);" d="M870.3,238.4
			c0-79.8,55.6-130.3,125.1-130.3c18.5,0,33.5,14.9,33.5,33.5s-14.9,33.5-33.5,33.5c-29.4,0-53,20.6-53,63.3V345
			c0,20.1-16,36.1-36,36.1s-36-16-36-36.1V238.4z"/>
		
			<linearGradient id="SVGID_00000172412388722696532830000009357770740038961282_" gradientUnits="userSpaceOnUse" x1="0" y1="190.55" x2="1127.313" y2="190.55">
			<stop  offset="0.2" style="stop-color:#7CCAB0"/>
			<stop  offset="0.3043" style="stop-color:#71C8B6"/>
			<stop  offset="0.4773" style="stop-color:#4CC3C7"/>
			<stop  offset="0.5" style="stop-color:#44C2C9"/>
			<stop  offset="0.85" style="stop-color:#486480"/>
		</linearGradient>
		<path style="fill:url(#SVGID_00000172412388722696532830000009357770740038961282_);" d="M1044.9,41.2c0-22.7,18.5-41.2,41.2-41.2
			s41.2,18.5,41.2,41.2c0,22.7-18.5,41.2-41.2,41.2S1044.9,63.9,1044.9,41.2z M1050.1,144.2c0-20.1,16-36.1,36-36.1s36,16,36,36.1
			V345c0,20.1-16,36.1-36,36.1s-36-16-36-36.1V144.2z"/>
	</g>
</g>
</svg>
