<svg xmlns="http://www.w3.org/2000/svg" viewBox="0 0 214.51 135.2"><g id="Layer_2" data-name="Layer 2"><g id="Layer_1-2" data-name="Layer 1"><g id="Layer_2-2" data-name="Layer 2"><path d="M46.35 67c-.72-8.16-6.25-12.73-14.17-13.21a28.19 28.19 0 00-17.53 4.32 21.08 21.08 0 01-2.4 1.45 45.45 45.45 0 01-1.2-4.56H0v80.2l13.69-1.92v-22.81c1.2 0 1.92.24 2.88.24 5 .24 10.09 1 15.13 1 7.68-.24 13.93-4.81 14.41-12.49A206 206 0 0046.35 67zM13.69 96.78c-.24-4.08 0-8.17 0-12.25v-12a5 5 0 011.68-3.36c4.08-2.88 8.4-4.56 13.45-3.6a4.91 4.91 0 014.32 4.8c.24 8.17.24 16.09 0 24.26a5 5 0 01-5.28 5.28 109.64 109.64 0 01-12.49-1.2h-1.68zm161.85 10.8c-.24-13.2 0-26.41-.48-39.62-.24-7.2-4.56-11.77-11.52-13.21-8.89-1.92-27.38.48-29.3 1.44l1.44 10.33h1c5.77-.48 11.77-1 17.53-1.2 5.29 0 7.45 2.4 7.69 7.68v3.37c.24 2.4-.48 3.36-3.13 3.36a139.33 139.33 0 00-14.16 0c-7 .24-10.81 3.6-12.25 10.32a23.91 23.91 0 00.72 13c1.68 4.8 5 7.69 9.85 8.41a24.53 24.53 0 008.4-.24 116.07 116.07 0 0012-3.85c.24.72.72 1.93 1 2.89h11.28zm-13.92-18.25v7a2.86 2.86 0 01-1.2 2.16 17.61 17.61 0 01-11.53 2.16c-2.88-.48-3.84-2.16-3.84-5.76 0-3.37 1-5 3.84-5.29a50.16 50.16 0 016-.24zm-66.04 21.14H82.13c0-1-.24-1.93-.24-2.65V34.34c4.56-1.92 8.88-4.32 13.45-6.72zm25.93 0h-13.45V27.38l13.45 7zM56.67 33.38h13.21v12.97H56.67zm64.84-9.37l-19.69-11.04-19.69 11.04V11.05L101.82 0l19.69 11.05v12.96zM56.67 54.99h13.45v55.47H56.67zm156.1 12.25c-3.61 1.92-7.21 4.08-10.81 5.76a3.9 3.9 0 00-2.16 3.85v33.38h-13.21V54.75h10.81l.48 1.68.72 3.57v.48l14.65-7.21c.48 4.08.72 7.45 1.2 10.81a2.53 2.53 0 01-1.68 3.16z" fill="#eb2227" id="Layer_2-2-2" data-name="Layer 2-2"/></g></g></g></svg>